# xmcd
#
# Track frame offsets:
#	150
#	14608
#	28060
#	40310
#	53006
#	66336
#	89861
#	101008
#	128142
#	144246
#
# Disc length: 2125 seconds
#
# Revision: 1
# Processed by: cddbd v1.5.2PL0 Copyright (c) Steve Scherf et al.
# Submitted via: EZCDAudioConverter 7.1.5.1
#
DISCID=8e084b0a
DTITLE=Beny More y 11 Leyendas de La Musica Cubana - Serie de Oro CD1
DYEAR=2004
DGENRE=Latin
TTITLE0=Beny Moré - Barbaro Del Ritmo
TTITLE1=Bola de Nieve - El Manisero
TTITLE2=Celia Cruz - La Jaibera
TTITLE3=Pérez Prado - La Chula Linda
TTITLE4=Beny Moré - Bonito y Sabroso
TTITLE5=Wuelfo - Cantinero de Cuba
TTITLE6=Alberto Beltrán - El Negrito del Batey
TTITLE7=Albita Rodriguez - Cantare
TTITLE8=Trio Matamoros - La Negra Tomasa
TTITLE9=Beny Moré - La Vida Es un Sueño
EXTD=
EXTT0=
EXTT1=
EXTT2=
EXTT3=
EXTT4=
EXTT5=
EXTT6=
EXTT7=
EXTT8=
EXTT9=
PLAYORDER=
